<?xml version="1.0" encoding="UTF-8" standalone="no"?>
<!-- Created with Inkscape (http://www.inkscape.org/) -->

<svg
   version="1.1"
   id="svg6942"
   width="682.66669"
   height="682.66669"
   viewBox="0 0 682.66669 682.66669"
   xmlns="http://www.w3.org/2000/svg"
   xmlns:svg="http://www.w3.org/2000/svg">
  <defs
     id="defs6946">
    <clipPath
       clipPathUnits="userSpaceOnUse"
       id="clipPath6956">
      <path
         d="M 0,512 H 512 V 0 H 0 Z"
         id="path6954" />
    </clipPath>
  </defs>
  <g
     id="g6948"
     transform="matrix(1.3333333,0,0,-1.3333333,0,682.66667)">
    <g
       id="g6950">
      <g
         id="g6952"
         clip-path="url(#clipPath6956)">
        <g
           id="g6958"
           transform="translate(417.5371,289.4248)">
          <path
             d="M 0,0 C -4.27,20.733 -12.438,40.049 -23.695,57.144 L -5.112,83.092 -45.021,123 -70.969,104.417 c -17.094,11.257 -36.41,19.426 -57.143,23.695 l -5.207,31.463 h -56.435 l -5.207,-31.463 c -20.734,-4.269 -40.05,-12.438 -57.144,-23.695 L -278.054,123 -317.962,83.092 -299.378,57.144 C -310.636,40.049 -318.805,20.733 -323.074,0 l -31.463,-5.207 v -56.436 l 31.463,-5.207 c 4.269,-20.733 12.438,-40.048 23.696,-57.143 l -18.584,-25.948 39.908,-39.909 25.949,18.583 c 17.094,-11.256 36.41,-19.425 57.144,-23.695 l 5.207,-31.463 h 56.435 l 5.207,31.463 c 20.733,4.27 40.049,12.439 57.143,23.695 l 25.948,-18.583 39.909,39.909 -18.583,25.948 C -12.438,-106.898 -4.27,-87.583 0,-66.85 l 31.463,5.207 v 56.436 z"
             style="fill:#fee95d;fill-opacity:1;fill-rule:nonzero;stroke:none"
             id="path6960" />
        </g>
        <g
           id="g6962"
           transform="translate(256,150.0078)">
          <path
             d="m 0,0 c -58.542,0 -105.993,47.451 -105.993,105.992 0,58.541 47.451,105.992 105.993,105.992 58.541,0 105.992,-47.451 105.992,-105.992 C 105.992,47.451 58.541,0 0,0"
             style="fill:#a4fef1;fill-opacity:1;fill-rule:nonzero;stroke:none"
             id="path6964" />
        </g>
        <g
           id="g6966"
           transform="translate(483.0439,475.9922)">
          <path
             d="m 0,0 c 0,-15.72 -12.743,-28.463 -28.463,-28.463 -15.721,0 -28.464,12.743 -28.464,28.463 0,15.721 12.743,28.464 28.464,28.464 C -12.743,28.464 0,15.721 0,0"
             style="fill:#e54696;fill-opacity:1;fill-rule:nonzero;stroke:none"
             id="path6968" />
        </g>
        <g
           id="g6970"
           transform="translate(36.3794,475.9922)">
          <path
             d="m 0,0 c 0,-15.72 12.744,-28.463 28.463,-28.463 15.721,0 28.464,12.743 28.464,28.463 0,15.721 -12.743,28.464 -28.464,28.464 C 12.744,28.464 0,15.721 0,0"
             style="fill:#d8fc7e;fill-opacity:1;fill-rule:nonzero;stroke:none"
             id="path6972" />
        </g>
        <g
           id="g6974"
           transform="translate(471.29,35.9346)">
          <path
             d="m 0,0 c 0,15.72 -12.743,28.463 -28.463,28.463 -15.72,0 -28.464,-12.743 -28.464,-28.463 0,-15.72 12.744,-28.464 28.464,-28.464 C -12.743,-28.464 0,-15.72 0,0"
             style="fill:#d8fc7e;fill-opacity:1;fill-rule:nonzero;stroke:none"
             id="path6976" />
        </g>
        <g
           id="g6978"
           transform="translate(35.2158,35.9346)">
          <path
             d="M 0,0 C 0,15.72 12.744,28.463 28.463,28.463 44.184,28.463 56.927,15.72 56.927,0 56.927,-15.72 44.184,-28.464 28.463,-28.464 12.744,-28.464 0,-15.72 0,0"
             style="fill:#e54696;fill-opacity:1;fill-rule:nonzero;stroke:none"
             id="path6980" />
        </g>
        <g
           id="g6982"
           transform="translate(366.5684,393.8418)">
          <path
             d="M 0,0 14.295,10.236 5.948,18.583 -10.852,6.552 C -7.146,4.501 -3.523,2.32 0,0"
             style="fill:#fde31d;fill-opacity:1;fill-rule:nonzero;stroke:none"
             id="path6984" />
        </g>
        <g
           id="g6986"
           transform="translate(185.4316,393.8418)">
          <path
             d="m 0,0 c 17.094,11.257 36.41,19.426 57.144,23.695 l 5.207,31.463 h -20 L 37.144,23.695 C 20.684,20.306 5.122,14.45 -9.148,6.552 Z"
             style="fill:#fde31d;fill-opacity:1;fill-rule:nonzero;stroke:none"
             id="path6988" />
        </g>
        <g
           id="g6990"
           transform="translate(366.5684,118.1582)">
          <path
             d="m 0,0 c -3.523,-2.32 -7.146,-4.501 -10.852,-6.552 l 16.8,-12.031 8.347,8.347 z"
             style="fill:#fde31d;fill-opacity:1;fill-rule:nonzero;stroke:none"
             id="path6992" />
        </g>
        <g
           id="g6994"
           transform="translate(119.5752,139.4834)">
          <path
             d="M 0,0 18.583,25.948 C 7.326,43.043 -0.843,62.358 -5.112,83.092 l -31.463,5.207 v 56.435 l 31.463,5.207 c 4.269,20.734 12.438,40.049 23.695,57.144 L 0,233.033 31.562,264.595 19.908,272.941 -20,233.033 -1.417,207.085 c -11.257,-17.095 -19.426,-36.41 -23.695,-57.144 l -31.463,-5.207 V 88.299 l 31.463,-5.207 C -20.843,62.358 -12.674,43.043 -1.417,25.948 L -20,0 l 39.908,-39.908 11.654,8.346 z"
             style="fill:#fde31d;fill-opacity:1;fill-rule:nonzero;stroke:none"
             id="path6996" />
        </g>
        <g
           id="g6998"
           transform="translate(185.4316,118.1582)">
          <path
             d="m 0,0 -9.148,-6.552 c 14.27,-7.898 29.832,-13.754 46.292,-17.143 l 5.207,-31.463 h 20 l -5.207,31.463 C 36.41,-19.426 17.094,-11.257 0,0"
             style="fill:#fde31d;fill-opacity:1;fill-rule:nonzero;stroke:none"
             id="path7000" />
        </g>
        <g
           id="g7002"
           transform="translate(170.0073,256)">
          <path
             d="m 0,0 c 0,55.168 42.143,100.48 95.993,105.52 -3.293,0.308 -6.627,0.472 -10,0.472 C 27.451,105.992 -20,58.541 -20,0 c 0,-58.541 47.451,-105.992 105.993,-105.992 3.373,0 6.707,0.164 10,0.472 C 42.143,-100.48 0,-55.168 0,0"
             style="fill:#b6e6fa;fill-opacity:1;fill-rule:nonzero;stroke:none"
             id="path7004" />
        </g>
        <g
           id="g7006"
           transform="translate(446.1172,475.9922)">
          <path
             d="m 0,0 c 0,12.2 7.678,22.604 18.464,26.652 -3.112,1.168 -6.481,1.812 -10,1.812 C -7.256,28.464 -20,15.721 -20,0 c 0,-15.72 12.744,-28.463 28.464,-28.463 3.519,0 6.888,0.643 10,1.812 C 7.678,-22.603 0,-12.199 0,0"
             style="fill:#7f34a9;fill-opacity:1;fill-rule:nonzero;stroke:none"
             id="path7008" />
        </g>
        <g
           id="g7010"
           transform="translate(56.3794,475.9922)">
          <path
             d="m 0,0 c 0,12.2 7.678,22.604 18.463,26.652 -3.111,1.168 -6.48,1.812 -10,1.812 C -7.256,28.464 -20,15.721 -20,0 c 0,-15.72 12.744,-28.463 28.463,-28.463 3.52,0 6.889,0.643 10,1.812 C 7.678,-22.603 0,-12.199 0,0"
             style="fill:#54e072;fill-opacity:1;fill-rule:nonzero;stroke:none"
             id="path7012" />
        </g>
        <g
           id="g7014"
           transform="translate(434.3633,35.9346)">
          <path
             d="m 0,0 c 0,12.2 7.678,22.604 18.464,26.652 -3.112,1.168 -6.481,1.812 -10,1.812 C -7.256,28.464 -20,15.72 -20,0 c 0,-15.72 12.744,-28.464 28.464,-28.464 3.519,0 6.888,0.644 10,1.812 C 7.678,-22.604 0,-12.2 0,0"
             style="fill:#54e072;fill-opacity:1;fill-rule:nonzero;stroke:none"
             id="path7016" />
        </g>
        <g
           id="g7018"
           transform="translate(55.2158,35.9346)">
          <path
             d="m 0,0 c 0,12.2 7.678,22.603 18.464,26.652 -3.112,1.168 -6.481,1.812 -10,1.812 C -7.256,28.464 -20,15.72 -20,0 c 0,-15.72 12.744,-28.464 28.464,-28.464 3.519,0 6.888,0.644 10,1.812 C 7.678,-22.604 0,-12.2 0,0"
             style="fill:#7f34a9;fill-opacity:1;fill-rule:nonzero;stroke:none"
             id="path7020" />
        </g>
        <g
           id="g7022"
           transform="translate(326.2197,405.2695)">
          <path
             d="M 0,0 C 7.07,-3.34 13.87,-7.159 20.351,-11.43 L 46.3,7.15 86.2,-32.75 67.62,-58.699 c 11.26,-17.101 19.43,-36.41 23.7,-57.151 l 31.46,-5.2 v -56.439 l -31.46,-5.2 c -4.27,-20.741 -12.44,-40.05 -23.7,-57.151 l 18.58,-25.949 -39.9,-39.9 -25.949,18.58 C 3.25,-298.369 -16.06,-306.539 -36.8,-310.81 l -5.2,-31.46 h -56.44 l -5.2,31.46 c -20.74,4.271 -40.05,12.441 -57.15,23.701 l -25.95,-18.58 -39.9,39.9 18.58,25.949 c -11.26,17.101 -19.43,36.41 -23.7,57.151 l -31.46,5.2 v 56.439 l 31.46,5.2 c 4.27,20.741 12.44,40.05 23.7,57.151 l -18.58,25.949 39.9,39.9 25.95,-18.58 c 17.1,11.26 36.41,19.43 57.15,23.701 l 5.2,31.459 H -42 l 5.2,-31.459 C -29.34,10.73 -22.069,8.7 -15.02,6.19"
             style="fill:none;stroke:#000000;stroke-width:15;stroke-linecap:butt;stroke-linejoin:miter;stroke-miterlimit:10;stroke-dasharray:none;stroke-opacity:1"
             id="path7024" />
        </g>
        <g
           id="g7026"
           transform="translate(338.8369,363.7842)">
          <path
             d="m 0,0 c 12.567,-9.684 23.431,-21.552 31.953,-34.934 8.701,-13.663 14.93,-28.87 18.276,-44.72 1.952,-9.242 2.925,-18.685 2.926,-28.13"
             style="fill:none;stroke:#fff;stroke-width:15;stroke-linecap:butt;stroke-linejoin:miter;stroke-miterlimit:10;stroke-dasharray:15, 15, 15, 15, 350;stroke-dashoffset:0;stroke-opacity:1"
             id="path7028" />
        </g>
        <g
           id="g7030"
           transform="translate(186.9302,175.5996)">
          <path
             d="m 0,0 c 18.55,-15.949 42.68,-25.59 69.07,-25.59 58.54,0 105.99,47.45 105.99,105.99 0,58.54 -47.45,105.991 -105.99,105.991 -58.54,0 -105.99,-47.451 -105.99,-105.991 0,-26.75 9.91,-51.19 26.26,-69.839"
             style="fill:none;stroke:#000000;stroke-width:15;stroke-linecap:butt;stroke-linejoin:miter;stroke-miterlimit:10;stroke-dasharray:none;stroke-opacity:1"
             id="path7032" />
        </g>
        <g
           id="g7034"
           transform="translate(191.2095,217.0381)">
          <path
             d="M 0,0 V 70.978 H 37.59 V 0"
             style="fill:none;stroke:#000000;stroke-width:15;stroke-linecap:butt;stroke-linejoin:miter;stroke-miterlimit:10;stroke-dasharray:none;stroke-opacity:1"
             id="path7036" />
        </g>
        <g
           id="g7038"
           transform="translate(255.8833,217.0381)">
          <path
             d="M 0,0 V 70.978"
             style="fill:none;stroke:#000000;stroke-width:15;stroke-linecap:butt;stroke-linejoin:miter;stroke-miterlimit:10;stroke-dasharray:none;stroke-opacity:1"
             id="path7040" />
        </g>
        <g
           id="g7042"
           transform="translate(320.79,217.0381)">
          <path
             d="M 0,0 V 77.924"
             style="fill:none;stroke:#000000;stroke-width:15;stroke-linecap:butt;stroke-linejoin:miter;stroke-miterlimit:10;stroke-dasharray:none;stroke-opacity:1"
             id="path7044" />
        </g>
        <g
           id="g7046"
           transform="translate(191.2095,252.5273)">
          <path
             d="M 0,0 H 37.59"
             style="fill:none;stroke:#000000;stroke-width:15;stroke-linecap:butt;stroke-linejoin:miter;stroke-miterlimit:10;stroke-dasharray:none;stroke-opacity:1"
             id="path7048" />
        </g>
        <g
           id="g7050"
           transform="translate(294.3779,253.0625)">
          <path
             d="M 0,0 H -37.59"
             style="fill:none;stroke:#000000;stroke-width:15;stroke-linecap:butt;stroke-linejoin:miter;stroke-miterlimit:10;stroke-dasharray:none;stroke-opacity:1"
             id="path7052" />
        </g>
        <path
           d="m 293.474,253.062 h -37.59 v 34.953 h 37.59 z"
           style="fill:none;stroke:#000000;stroke-width:15;stroke-linecap:butt;stroke-linejoin:miter;stroke-miterlimit:10;stroke-dasharray:none;stroke-opacity:1"
           id="path7054" />
        <g
           id="g7056"
           transform="translate(483.0439,475.9922)">
          <path
             d="m 0,0 c 0,-15.72 -12.743,-28.463 -28.463,-28.463 -15.721,0 -28.464,12.743 -28.464,28.463 0,15.721 12.743,28.464 28.464,28.464 C -12.743,28.464 0,15.721 0,0 Z"
             style="fill:none;stroke:#000000;stroke-width:15;stroke-linecap:butt;stroke-linejoin:miter;stroke-miterlimit:10;stroke-dasharray:none;stroke-opacity:1"
             id="path7058" />
        </g>
        <g
           id="g7060"
           transform="translate(454.5801,447.3896)">
          <path
             d="M 0,0 V -123.989 H -15.62"
             style="fill:none;stroke:#000000;stroke-width:15;stroke-linecap:butt;stroke-linejoin:miter;stroke-miterlimit:10;stroke-dasharray:none;stroke-opacity:1"
             id="path7062" />
        </g>
        <g
           id="g7064"
           transform="translate(36.3794,475.9922)">
          <path
             d="m 0,0 c 0,-15.72 12.744,-28.463 28.463,-28.463 15.721,0 28.464,12.743 28.464,28.463 0,15.721 -12.743,28.464 -28.464,28.464 C 12.744,28.464 0,15.721 0,0 Z"
             style="fill:none;stroke:#000000;stroke-width:15;stroke-linecap:butt;stroke-linejoin:miter;stroke-miterlimit:10;stroke-dasharray:none;stroke-opacity:1"
             id="path7066" />
        </g>
        <g
           id="g7068"
           transform="translate(92.8398,475.3896)">
          <path
             d="M 0,0 H 0.45 91.58 V -38.029"
             style="fill:none;stroke:#000000;stroke-width:15;stroke-linecap:butt;stroke-linejoin:miter;stroke-miterlimit:10;stroke-dasharray:none;stroke-opacity:1"
             id="path7070" />
        </g>
        <g
           id="g7072"
           transform="translate(471.29,35.9346)">
          <path
             d="m 0,0 c 0,15.72 -12.743,28.463 -28.463,28.463 -15.72,0 -28.464,-12.743 -28.464,-28.463 0,-15.72 12.744,-28.464 28.464,-28.464 C -12.743,-28.464 0,-15.72 0,0 Z"
             style="fill:none;stroke:#000000;stroke-width:15;stroke-linecap:butt;stroke-linejoin:miter;stroke-miterlimit:10;stroke-dasharray:none;stroke-opacity:1"
             id="path7074" />
        </g>
        <g
           id="g7076"
           transform="translate(414.8301,34.54)">
          <path
             d="M 0,0 H -0.43 -91.58 V 38.45"
             style="fill:none;stroke:#000000;stroke-width:15;stroke-linecap:butt;stroke-linejoin:miter;stroke-miterlimit:10;stroke-dasharray:none;stroke-opacity:1"
             id="path7078" />
        </g>
        <g
           id="g7080"
           transform="translate(35.2158,35.9346)">
          <path
             d="M 0,0 C 0,15.72 12.744,28.463 28.463,28.463 44.184,28.463 56.927,15.72 56.927,0 56.927,-15.72 44.184,-28.464 28.463,-28.464 12.744,-28.464 0,-15.72 0,0 Z"
             style="fill:none;stroke:#000000;stroke-width:15;stroke-linecap:butt;stroke-linejoin:miter;stroke-miterlimit:10;stroke-dasharray:none;stroke-opacity:1"
             id="path7082" />
        </g>
        <g
           id="g7084"
           transform="translate(74.2002,185.5303)">
          <path
             d="m 0,0 h -10.52 v -44.65 -7.93 -68.41"
             style="fill:none;stroke:#000000;stroke-width:15;stroke-linecap:butt;stroke-linejoin:miter;stroke-miterlimit:10;stroke-dasharray:none;stroke-opacity:1"
             id="path7086" />
        </g>
      </g>
    </g>
  </g>
</svg>
