<svg enable-background="new 0 0 32 32" height="32" viewBox="0 0 32 32" width="32" xmlns="http://www.w3.org/2000/svg"><g><g id="Amazon_2_"><g id="Amazon_1_"><circle id="Bg" cx="16" cy="16" fill="#fec327" r="16"/><path id="Amazon" clip-rule="evenodd" d="m21.7 21c-.1 0-.2 0-.2.1-.1 0-.2.1-.3.1l-.1.1-.2.1c-1.7.7-3.5 1.1-5.2 1.1-.1 0-.1 0-.2 0-2.6 0-4.8-1.2-6.9-2.4-.1 0-.2-.1-.2-.1-.1 0-.2 0-.3.1-.1 0-.1.1-.1.2s.1.3.2.3c2 1.8 4.3 3.4 7.2 3.4h.2c1.9 0 4.1-.7 5.7-1.7.2-.1.4-.3.6-.4.1-.1.2-.2.2-.4.1-.4-.2-.5-.4-.5zm2.3-1c0-.2 0-.3-.1-.4-.1-.1-.1-.1-.2-.1-.2-.1-.5-.1-.9-.1-.3 0-.6 0-.9.1l-.3.1-.2.1c-.2.1-.4.2-.6.3-.1.1-.2.2-.2.3s0 .2.1.3.2.1.2.1h.1c.2 0 .4-.1.6-.1h.7.4.1v.1c0 .2-.1.5-.2.8s-.2.6-.3.8v.2c0 .1 0 .2.1.2.1.1.2.1.2.1.1 0 .2 0 .3-.1.8-.7 1.1-1.8 1.1-2.5zm-7.1-7.5c-.5 0-1 .1-1.5.1-.8.1-1.6.2-2.3.6-1.3.5-2.2 1.7-2.2 3.3 0 2.1 1.3 3.1 3 3.1.6 0 1-.1 1.4-.2.7-.2 1.2-.6 1.9-1.3.4.5.5.8 1.2 1.3.2.1.4.1.5 0 .4-.4 1.2-1 1.6-1.3.2-.1.1-.4 0-.5-.4-.5-.8-.9-.8-1.9v-3.2c0-1.3.1-2.6-.9-3.5-.8-.7-2.1-1-3.1-1h-.4c-1.8.1-3.7.9-4.1 3.1-.1.3.1.4.3.4l2 .2c.2 0 .3-.2.4-.4.2-.8.8-1.2 1.5-1.2h.1c.4 0 .9.2 1.1.5.3.4.2 1 .2 1.5v.4zm0 2c0 .8 0 1.4-.4 2.2-.2.5-.7.8-1.1.9-.1 0-.2 0-.3 0-.8 0-1.2-.6-1.2-1.5 0-1.1.7-1.7 1.5-1.9.5-.1 1-.1 1.5-.1z" fill="#fff" fill-rule="evenodd"/></g></g></g></svg>