<svg version="1.1" id="Capa_1" xmlns="http://www.w3.org/2000/svg" xmlns:xlink="http://www.w3.org/1999/xlink" x="0px" y="0px" viewBox="0 0 512 512" style="enable-background:new 0 0 512 512;" xml:space="preserve">
<g>
	<g>
		<path style="fill:#FFDE80;" d="M425.798,342.715c1.4,1.24,1.77,3.28,0.87,4.93L402.5,374.06c-5.66,0.83-9.756-4.392-15.636-4.392&#10;&#9;&#9;&#9;h-7.62c-24.025,0-46.107-4.485-65.506-17.506c-7.951-10.173-16.862-14.542-24.471-23.906L256,295.61l-35.061,33.023&#10;&#9;&#9;&#9;c-7.904,9.727-21.229,27.297-21.229,27.297c-19.157,12.542-41.713,19.39-65.27,19.39h-7.62c-6.68,0-13.24-0.55-19.62-1.63h-0.01&#10;&#9;&#9;&#9;l-26.435-29.81c-0.9-1.65-0.54-3.69,0.87-4.93l34.325-14.44c3.54,0.56,7.17,0.85,10.87,0.85h7.62c11.289,0,22.182-2.706,31.9-7.74&#10;&#9;&#9;&#9;c9.045,0.47,18.558-5.372,24.669-12.893L223.81,256l-35.54-43.74c-9.836-12.104-17.262-25.126-38.04-23.81&#10;&#9;&#9;&#9;c-5.118-1.189-10.408-1.81-15.79-1.81h-7.62c-7.47,0-14.67,1.19-21.41,3.38l1.364-25.622c0.61-1.77-0.1-3.73-1.71-4.7&#10;&#9;&#9;&#9;L88.97,142.84c11.9-4,24.62-6.16,37.85-6.16h7.62c19.825,0,38.941,4.849,55.92,13.86c8.883,13.014,26.422,17.586,36.68,30.21&#10;&#9;&#9;&#9;L256,216.39l28.96-35.64c0,0,27.792-17.479,36.49-30.11c17.026-9.075,36.212-13.96,56.11-13.96h7.62c12.72,0,24.97,2,36.47,5.71&#10;&#9;&#9;&#9;l-14.155,19.849c-1.6,0.97-2.31,2.92-1.71,4.7L404.19,189.3c-6.04-1.74-12.42-2.66-19.01-2.66h-7.62&#10;&#9;&#9;&#9;c-6.124,0-12.133,0.798-17.9,2.33c-17.874-1.511-26.562,11.762-35.93,23.29L288.19,256l30.254,49.48&#10;&#9;&#9;&#9;c5.711,7.027,16.565,11.482,25.586,11.27c10.122,5.593,21.606,8.61,33.53,8.61h7.62c3.07,0,6.09-0.2,9.05-0.59L425.798,342.715z"/>
		<path style="fill:#8DB9FF;" d="M93.39,348.46l13.8,25.23C50.7,364.31,7.5,315.11,7.5,256c0-52.56,34.17-97.3,81.46-113.16h0.01&#10;&#9;&#9;&#9;l24.16,14.7c1.61,0.97,2.32,2.93,1.71,4.7l-9.43,27.78c-27.8,9.04-47.95,35.2-47.95,65.98c0,34.55,25.39,63.28,58.49,68.51&#10;&#9;&#9;&#9;l-21.69,19.02C92.85,344.77,92.49,346.81,93.39,348.46z"/>
		<path style="fill:#FF7E7B;" d="M498.115,256c0,59.91-41.223,101.81-95.615,118.06l14-25.6c0.9-1.65,0.53-3.69-0.87-4.93&#10;&#9;&#9;&#9;l-21.4-18.76c33.98-4.45,60.31-33.59,60.31-68.77c0-31.66-21.32-58.42-50.35-66.7l-9.15-27.06c-0.6-1.78,0.11-3.73,1.71-4.7&#10;&#9;&#9;&#9;l24.9-15.15c13.304,4.279,25.597,10.835,36.417,19.207C486.294,183.437,498.115,217.636,498.115,256z"/>
		<path style="fill:#FFCE61;" d="M425.268,350.751L402.5,374.06c-5.66,0.83-11.44,1.26-17.32,1.26h-7.62&#10;&#9;&#9;&#9;c-24.02,0-47.01-7.12-66.41-20.14c-9.74-6.54-18.58-14.56-26.19-23.93L256,295.61l-28.96,35.64c-7.9,9.73-17.13,18.01-27.33,24.68&#10;&#9;&#9;&#9;c-13.77-10.44-25.07-23.55-33.37-38.31c8.34-4.33,15.82-10.36,21.93-17.88L223.81,256l-35.54-43.74&#10;&#9;&#9;&#9;c-9.84-12.1-23.2-20.37-38.04-23.81l0-11.46c0-14.159,11.591-25.85,25.75-25.99c5.056-0.05,9.843-0.2,14.38-0.46&#10;&#9;&#9;&#9;c13.93,7.39,26.42,17.58,36.68,30.21L256,216.39l28.96-35.64c10.21-12.57,22.64-22.73,36.49-30.11c3.91,0.19,8.09,0.31,12.47,0.36&#10;&#9;&#9;&#9;c14.18,0.13,25.74,11.79,25.74,25.99v11.98c-13.99,3.71-26.56,11.76-35.93,23.29L288.19,256l35.54,43.74&#10;&#9;&#9;&#9;c5.71,7.03,12.61,12.76,20.3,17.01c-3.71,6.719-8.034,13.099-12.929,19.051c-5.065,6.158-1.946,15.496,5.835,17.237&#10;&#9;&#9;&#9;c8.465,1.894,17.268,2.893,26.304,2.893c18.89,0,36.75-4.36,52.64-12.15C417.07,345.02,426.108,349.201,425.268,350.751z"/>
		<g>
			<path style="fill:#86E8D0;" d="M335.009,179.175l-0.565,74.377c0,33.003-14.697,61.914-41.412,81.293l-32.347,23.465&#10;&#9;&#9;&#9;&#9;c-4.679,3.395-11.011,3.394-15.691-0.001l-8.775-3.029l-21.468-15.576c-26.71-19.38-42.52-50.382-42.52-83.383v-79.326&#10;&#9;&#9;&#9;&#9;c0-2.191,1.77-3.976,3.961-3.997c37.207-0.369,60.079-5.992,76.793-15.555c1.213-0.694,2.703-0.694,3.916,0&#10;&#9;&#9;&#9;&#9;c14.016,8.019,32.358,13.275,59.858,14.978c0,0,8.281,2.698,14.288,2.757C333.239,175.199,335.009,176.983,335.009,179.175z"/>
			<path style="fill:#5DE1C4;" d="M337.66,176.99v79.33c0,33-15.82,64-42.53,83.38l-32.35,23.47c-4.68,3.39-11.01,3.39-15.69,0&#10;&#9;&#9;&#9;&#9;l-17.87-13.475l38.01-27.58c26.72-19.38,42.53-50.38,42.53-83.38v-71.9c5.3,0.33,17.93,6.105,23.94,6.165&#10;&#9;&#9;&#9;&#9;C335.89,173.02,337.66,174.8,337.66,176.99z"/>
			<circle style="fill:#5DE1C4;" cx="254.944" cy="252" r="49.024"/>
		</g>
		<path style="fill:#FF6464;" d="M504.5,256c0,59.91-44.39,109.65-102,118.06l14-25.6c0.84-1.55,0.57-3.44-0.62-4.68&#10;&#9;&#9;&#9;c2.08-1.01,4.12-2.08,6.13-3.22c36.5-20.55,61.14-59.67,61.14-104.54c0-28.85-10.19-55.32-27.17-76.01&#10;&#9;&#9;&#9;C485.39,181.77,504.5,216.7,504.5,256z"/>
	</g>
	<g>
		<g>
			<path style="fill:none;stroke:#000000;stroke-width:15;stroke-linecap:round;stroke-linejoin:round;stroke-miterlimit:10;" d="&#10;&#9;&#9;&#9;&#9;M326.496,302.943c13.12,14.298,31.501,22.418,51.064,22.418h7.618c38.246,0,69.361-31.116,69.361-69.361&#10;&#9;&#9;&#9;&#9;s-31.115-69.361-69.361-69.361h-7.618c-13.953,0-27.304,4.13-38.574,11.686 M137.23,136.71c-0.93-0.02-1.86-0.03-2.79-0.03h-7.62&#10;&#9;&#9;&#9;&#9;C61.03,136.68,7.5,190.21,7.5,256s53.53,119.32,119.32,119.32h7.62c31.43,0,61.09-12.18,83.26-33.83 M172.23,142.78&#10;&#9;&#9;&#9;&#9;c15.94,5.29,30.62,13.94,43.1,25.48 M60.73,277.06c-2.12-6.64-3.27-13.72-3.27-21.06c0-38.25,31.12-69.36,69.36-69.36h7.62&#10;&#9;&#9;&#9;&#9;c13.63,0,26.69,3.94,37.79,11.17 M80.18,307.29c12.33,11.22,28.7,18.07,46.64,18.07h7.62c18.89,0,36.69-7.57,49.7-20.97&#10;&#9;&#9;&#9;&#9; M295.09,169.75c22.08-21.17,51.41-33.07,82.47-33.07h7.62c65.79,0,119.32,53.53,119.32,119.32s-53.53,119.32-119.32,119.32&#10;&#9;&#9;&#9;&#9;h-7.62c-6.56,0-13.03-0.53-19.38-1.57 M324.61,362.98c-10.83-5.36-20.85-12.38-29.7-20.91"/>
		</g>
		
			<polyline style="fill:none;stroke:#000000;stroke-width:15;stroke-linecap:round;stroke-linejoin:round;stroke-miterlimit:10;" points="&#10;&#9;&#9;&#9;394.6,325.092 418.036,345.646 402.676,373.72 &#9;&#9;"/>
		
			<polyline style="fill:none;stroke:#000000;stroke-width:15;stroke-linecap:round;stroke-linejoin:round;stroke-miterlimit:10;" points="&#10;&#9;&#9;&#9;115.288,325.092 91.852,345.646 107.212,373.72 &#9;&#9;"/>
		
			<polyline style="fill:none;stroke:#000000;stroke-width:15;stroke-linecap:round;stroke-linejoin:round;stroke-miterlimit:10;" points="&#10;&#9;&#9;&#9;404.09,188.998 394.014,159.204 421.354,142.571 &#9;&#9;"/>
		
			<polyline style="fill:none;stroke:#000000;stroke-width:15;stroke-linecap:round;stroke-linejoin:round;stroke-miterlimit:10;" points="&#10;&#9;&#9;&#9;105.616,189.423 115.874,159.204 89.787,143.333 &#9;&#9;"/>
		<g>
			<g>
				
					<polyline style="fill:none;stroke:#000000;stroke-width:15;stroke-linecap:round;stroke-linejoin:round;stroke-miterlimit:10;" points="&#10;&#9;&#9;&#9;&#9;&#9;399.428,275.549 418.977,256 399.428,236.451 &#9;&#9;&#9;&#9;"/>
			</g>
			
				<line style="fill:none;stroke:#000000;stroke-width:15;stroke-linecap:round;stroke-linejoin:round;stroke-miterlimit:10;" x1="377.26" y1="221.586" x2="360.348" y2="290.414"/>
		</g>
		<path style="fill:none;stroke:#000000;stroke-width:15;stroke-linecap:round;stroke-linejoin:round;stroke-miterlimit:10;" d="&#10;&#9;&#9;&#9;M103.875,280.344h-5.38c-2.761,0-5-2.239-5-5v-8.505c0-2.011-0.584-3.978-1.681-5.663L88.444,256l3.37-5.176&#10;&#9;&#9;&#9;c1.097-1.685,1.681-3.653,1.681-5.663v-8.505c0-2.761,2.239-5,5-5h5.38"/>
		
			<line style="fill:none;stroke:#000000;stroke-width:15;stroke-linecap:round;stroke-linejoin:round;stroke-miterlimit:10;" x1="147.057" y1="256" x2="147.057" y2="256"/>
		
			<line style="fill:none;stroke:#000000;stroke-width:15;stroke-linecap:round;stroke-linejoin:round;stroke-miterlimit:10;" x1="119.251" y1="256" x2="119.251" y2="256"/>
		<path style="fill:none;stroke:#000000;stroke-width:15;stroke-linecap:round;stroke-linejoin:round;stroke-miterlimit:10;" d="&#10;&#9;&#9;&#9;M336.214,273.5c-4.46,26.371-19.071,50.234-41.085,66.203l-32.347,23.465c-4.68,3.395-11.011,3.394-15.691-0.001l-32.34-23.464&#10;&#9;&#9;&#9;c-26.71-19.38-42.52-50.382-42.52-83.383v-83.304c41.072,0,65.261-6.12,82.712-16.73c17.451,10.61,41.632,16.73,82.712,16.73&#10;&#9;&#9;&#9;V238.5"/>
		<g>
			
				<circle style="fill:none;stroke:#000000;stroke-width:15;stroke-linecap:round;stroke-linejoin:round;stroke-miterlimit:10;" cx="254.944" cy="252" r="49.024"/>
			
				<polyline style="fill:none;stroke:#000000;stroke-width:15;stroke-linecap:round;stroke-linejoin:round;stroke-miterlimit:10;" points="&#10;&#9;&#9;&#9;&#9;237.401,252 250.663,267.909 274.599,239.194 &#9;&#9;&#9;"/>
		</g>
	</g>
</g>
<g>
</g>
<g>
</g>
<g>
</g>
<g>
</g>
<g>
</g>
<g>
</g>
<g>
</g>
<g>
</g>
<g>
</g>
<g>
</g>
<g>
</g>
<g>
</g>
<g>
</g>
<g>
</g>
<g>
</g>
</svg>