<?xml version="1.0"?>
<svg xmlns="http://www.w3.org/2000/svg" xmlns:xlink="http://www.w3.org/1999/xlink" viewBox="0 0 24 24"><defs><linearGradient gradientUnits="userSpaceOnUse" id="a" x1="0.6242" x2="23.3758" y1="6.69537" y2="17.30462"><stop offset="0" stop-color="#fff" stop-opacity="0.2"/><stop offset="1" stop-color="#fff" stop-opacity="0"/></linearGradient></defs><title/><path d="M12,24a.50107.50107,0,0,1-.23242-.05664l-10.5-5.5A.50285.50285,0,0,1,1,18V6a.50285.50285,0,0,1,.26758-.44336l10.5-5.5a.50136.50136,0,0,1,.46484,0l10.5,5.5A.50285.50285,0,0,1,23,6V18a.50285.50285,0,0,1-.26758.44336l-10.5,5.5A.50107.50107,0,0,1,12,24Z"/><polygon points="2 17.697 12 22.936 22 17.697 22 6.303 12 1.064 2 6.303 2 17.697"/><path d="M16.5,18a2.70393,2.70393,0,0,1-2.03516-.92383L9,10.83105V16.5a1.5,1.5,0,0,1-3,0v-9A1.50164,1.50164,0,0,1,7.5,6a2.70393,2.70393,0,0,1,2.03516.92383L15,13.169V7.5a1.5,1.5,0,0,1,3,0v9A1.50164,1.50164,0,0,1,16.5,18Z"/><path d="M8.5,9a.49988.49988,0,0,1,.376.1709L15.21777,16.418A1.70239,1.70239,0,0,0,16.5,17a.501.501,0,0,0,.5-.5v-9a.5.5,0,0,0-1,0v7a.4999.4999,0,0,1-.876.3291L8.78223,7.582A1.70239,1.70239,0,0,0,7.5,7a.501.501,0,0,0-.5.5v9a.5.5,0,0,0,1,0v-7A.501.501,0,0,1,8.5,9Z"/><path d="M12,24a.50107.50107,0,0,1-.23242-.05664l-10.5-5.5A.50285.50285,0,0,1,1,18V6a.50285.50285,0,0,1,.26758-.44336l10.5-5.5a.50136.50136,0,0,1,.46484,0l10.5,5.5A.50285.50285,0,0,1,23,6V18a.50285.50285,0,0,1-.26758.44336l-10.5,5.5A.50107.50107,0,0,1,12,24Z"/><polygon fill="#43a047" points="2 17.697 12 22.936 22 17.697 22 6.303 12 1.064 2 6.303 2 17.697"/><path d="M16.5,18a2.70393,2.70393,0,0,1-2.03516-.92383L9,10.83105V16.5a1.5,1.5,0,0,1-3,0v-9A1.50164,1.50164,0,0,1,7.5,6a2.70393,2.70393,0,0,1,2.03516.92383L15,13.169V7.5a1.5,1.5,0,0,1,3,0v9A1.50164,1.50164,0,0,1,16.5,18Z"/><path d="M8.5,9a.49988.49988,0,0,1,.376.1709L15.21777,16.418A1.70239,1.70239,0,0,0,16.5,17a.501.501,0,0,0,.5-.5v-9a.5.5,0,0,0-1,0v7a.4999.4999,0,0,1-.876.3291L8.78223,7.582A1.70239,1.70239,0,0,0,7.5,7a.501.501,0,0,0-.5.5v9a.5.5,0,0,0,1,0v-7A.501.501,0,0,1,8.5,9Z" fill="#fff"/><path d="M12,24a.50107.50107,0,0,1-.23242-.05664l-10.5-5.5A.50285.50285,0,0,1,1,18V6a.50285.50285,0,0,1,.26758-.44336l10.5-5.5a.50136.50136,0,0,1,.46484,0l10.5,5.5A.50285.50285,0,0,1,23,6V18a.50285.50285,0,0,1-.26758.44336l-10.5,5.5A.50107.50107,0,0,1,12,24Z" fill="url(#a)"/></svg>
