<svg clip-rule="evenodd" fill-rule="evenodd" height="11.806in" image-rendering="optimizeQuality" shape-rendering="geometricPrecision" text-rendering="geometricPrecision" viewBox="0 0 11806 11806" width="11.806in" xmlns="http://www.w3.org/2000/svg"><g id="Layer_x0020_1"><circle cx="5903" cy="5903" fill="#0cf" r="5903"/><g fill="#fdfdfd"><path d="m8041 8664c-215 0-479-66-786-198-49-21-72-79-50-128 21-49 79-72 128-50 498 215 864 243 1030 76 188-194 128-643-165-1232-313-629-851-1341-1515-2005s-1377-1201-2006-1515c-589-295-1037-355-1232-167-187 194-126 643 165 1232 313 629 852 1342 1516 2005 546 546 1155 1030 1716 1360 46 28 61 88 35 134-26 45-87 61-133 34-575-339-1197-832-1756-1390-678-678-1229-1408-1551-2057-338-678-384-1194-131-1454 0-2 2-2 2-2 261-252 777-206 1454 131 648 322 1379 874 2057 1551 678 678 1229 1409 1551 2057 338 678 383 1195 131 1455 0 0 0 0-2 1-108 107-264 162-458 162z"/><path d="m4002 7484c-580 0-1035-88-1317-254-173-102-280-232-320-386-92-352 204-777 833-1193 600-399 1443-757 2374-1009 1093-287 2150-383 2901-266 53 8 89 58 80 111-8 52-58 89-111 80-725-114-1754-18-2820 263-2000 541-3203 1452-3069 1965 27 103 105 193 231 268 567 333 1933 299 3400-87 2001-541 3203-1453 3069-1966-33-121-134-223-294-297-49-22-69-81-47-129 22-49 80-70 129-47 210 97 353 247 400 423 92 353-204 778-833 1195-600 398-1443 757-2374 1008-747 196-1478 307-2114 319-39 2-79 2-118 2z"/><path d="m5091 9459c-43 0-86-6-128-17-200-47-366-230-485-532-19-50 6-107 56-126 50-20 107 5 126 55 66 167 178 374 349 413h3c512 133 1423-1068 1965-3071 386-1467 421-2833 88-3400-75-126-164-204-267-230-514-134-1425 1068-1965 3069-268 1004-374 1983-289 2685 7 52-32 101-85 108s-101-32-108-85c-88-725 21-1730 294-2758 252-931 610-1774 1008-2374 419-629 842-925 1195-833 154 39 285 147 386 319 178 302 265 799 253 1437-13 634-122 1365-320 2112-251 931-609 1774-1008 2375-371 557-743 853-1068 853z"/><path d="m7035 8639c-97 0-195-37-269-111-149-148-149-391 0-540s392-149 540 0c149 149 149 392 0 540-75 74-173 111-271 111z"/><path d="m8730 4903c-97 0-196-37-270-111-148-148-148-391 0-540 149-149 392-149 541 0 148 149 148 392 0 540-75 74-174 111-271 111z"/><path d="m4494 8987c-97 0-196-38-270-111-148-149-148-392 0-541 149-148 392-148 541 0 148 149 148 392 0 541-75 73-174 111-271 111z"/></g></g></svg>