<svg id="Layer_1" enable-background="new 0 0 500 500" viewBox="0 0 500 500" xmlns="http://www.w3.org/2000/svg"><g clip-rule="evenodd" fill-rule="evenodd"><path d="m69.606 141.136c12.145 0 21.99 9.845 21.99 21.989 0 12.145-9.845 21.99-21.99 21.99-12.144 0-21.989-9.845-21.989-21.99-.001-12.144 9.844-21.989 21.989-21.989z" fill="#cf8c48"/><path d="m69.606 185.115c21.166 0 38.483 17.317 38.483 38.483v48.357h-76.965v-48.357c0-21.166 17.316-38.483 38.482-38.483z" fill="#fa6e85"/><path d="m239.034 25.527c12.144 0 21.99 9.845 21.99 21.989 0 12.145-9.845 21.99-21.99 21.99s-21.99-9.845-21.99-21.99c0-12.144 9.846-21.989 21.99-21.989z" fill="#cf8c48"/><path d="m239.034 69.506c21.166 0 38.482 17.316 38.482 38.483v48.357h-76.965v-48.357c.001-21.167 17.317-38.483 38.483-38.483z" fill="#fa6e85"/><path d="m406.019 141.136c12.145 0 21.99 9.845 21.99 21.989 0 12.145-9.845 21.99-21.99 21.99-12.144 0-21.989-9.845-21.989-21.99-.001-12.144 9.844-21.989 21.989-21.989z" fill="#cf8c48"/><path d="m406.019 185.115c21.166 0 38.483 17.317 38.483 38.483v48.357h-76.965v-48.357c0-21.166 17.316-38.483 38.482-38.483z" fill="#fa6e85"/><path d="m297.916 412.853c-35.79 23.052-81.974 23.052-117.764 0v-60.849c0-32.386 26.496-58.882 58.882-58.882s58.882 26.496 58.882 58.882z" fill="#fa6e85"/><path d="m239.034 293.121c18.583 0 33.647-15.064 33.647-33.646 0-18.583-15.064-33.647-33.647-33.647-18.582 0-33.646 15.064-33.646 33.647-.001 18.581 15.064 33.646 33.646 33.646z" fill="#cf8c48"/><path d="m237.612 130.43c87.13 0 157.763 70.633 157.763 157.763 0 57.112-30.348 107.133-75.797 134.823h-163.933c-45.449-27.69-75.797-77.712-75.797-134.823 0-87.13 70.633-157.763 157.764-157.763zm0 45.602c-61.945 0-112.161 50.216-112.161 112.161s50.216 112.161 112.161 112.161 112.161-50.216 112.161-112.161-50.217-112.161-112.161-112.161z" fill="#19cfba"/><path d="m309.155 117.942-8.218 25.732c55.599 24.392 94.438 79.914 94.438 144.519 0 57.112-30.348 107.133-75.797 134.823h-139.798v-37.016l.545-1.368c16.768 9.982 36.356 15.721 57.286 15.721 61.945 0 112.161-50.216 112.161-112.161 0-44.238-25.613-82.49-62.816-100.745l-6.296 24.119-47.315-58.956z" fill="#ffbf31"/><path d="m183.172 400.004h220.689v-31.606l64.969 52.82-64.969 52.819v-31.605h-220.689z" fill="#60b7fe"/><path d="m48.632 400.004h109.927v-31.606l64.969 52.82-64.969 52.819v-31.605h-109.927z" fill="#ffbf31"/><path d="m410.891 459.683v-16.872c0-3.871-3.132-7.015-7.009-7.015h-186.682l10.773-8.753c3.448-2.807 3.444-8.087 0-10.886l-10.773-8.757h186.682c3.877 0 7.009-3.144 7.009-7.015v-16.86l46.846 38.076zm-252.31-23.887h-102.911v-28.396h102.912c3.877 0 7.009-3.144 7.009-7.015v-16.86l46.84 38.076-46.84 38.082v-16.872c-.001-3.871-3.133-7.015-7.01-7.015zm-71.696-147.572c0 39.619 15.158 76.85 42.745 105.146h21.937v-22.723c-21.157-22.096-33.106-51.545-33.106-82.423 0-65.681 53.418-119.122 119.081-119.176l-9.639-12.015c-2.85-3.548-1.587-8.881 2.553-10.767l18.296-8.374c-87.403-6.429-161.867 62.918-161.867 150.332zm-48.726-23.254v-41.344c0-17.345 14.118-31.463 31.469-31.463 10.212 0 19.715 5 25.607 13.249-10.501 17.983-17.682 38.112-20.725 59.558zm31.469-116.788c8.256 0 14.975 6.714 14.975 14.969 0 8.268-6.719 14.981-14.975 14.981s-14.975-6.714-14.975-14.981c0-8.256 6.72-14.969 14.975-14.969zm137.957-40.163c0-17.362 14.137-31.475 31.481-31.47 17.345.012 31.457 14.118 31.457 31.47v18.728c-20.859-4.218-42.122-4.394-62.938-.544zm16.5-60.468c0-8.244 6.714-14.981 14.969-14.981 8.256 0 14.981 6.737 14.981 14.981 0 8.251-6.709 14.969-14.981 14.969-8.256 0-14.969-6.719-14.969-14.969zm66.839 331.281v-26.795c0-28.609-23.261-51.87-51.87-51.87-28.597 0-51.87 23.261-51.87 51.87v28.455c32.633 17.856 72.153 17.006 103.74-1.66zm-78.499-119.323c0-14.691 11.95-26.635 26.629-26.635 14.692 0 26.635 11.944 26.635 26.635 0 14.68-11.943 26.629-26.635 26.629-14.679 0-26.629-11.949-26.629-26.629zm-79.935 28.715c0-57.974 47.165-105.146 105.146-105.146 3.906 0 7.824.225 11.69.656l25.89 32.249c3.589 4.479 10.801 2.965 12.251-2.618l4.042-15.465c62.554 37.186 68.825 124.769 13.445 171.027v-16.89c0-27.344-16.736-50.841-40.511-60.811 9.308-7.452 15.271-18.899 15.271-31.717 0-22.427-18.231-40.659-40.659-40.659-22.41 0-40.659 18.231-40.659 40.659 0 12.818 5.975 24.265 15.271 31.717-23.763 9.97-40.511 33.467-40.511 60.811v19.555l-4.184-3.404.154-.189c-23.286-20.022-36.636-49.091-36.636-79.775zm165.655-138.098c-3.292-1.442-4.952-5.136-3.871-8.557l3.392-10.626-21.488 9.834-.408 1.56c-.644-.171-1.312-.319-1.968-.479l-29.336 13.421 32.958 41.049 2.766-10.62c1.115-4.276 5.892-6.482 9.875-4.527 19.721 9.68 36.374 24.602 48.188 43.165 37.276 58.577 16.454 136.361-44.577 169.024h51.976c27.575-28.296 42.733-65.527 42.733-105.146.002-59.836-35.421-114.046-90.24-138.098zm107.894 42.036c17.357 0 31.469 14.118 31.469 31.463v41.344h-36.741c-3.014-21.127-10.064-41.214-20.525-59.28 5.869-8.421 15.449-13.527 25.797-13.527zm0-43.98c8.262 0 14.981 6.714 14.981 14.969 0 8.268-6.719 14.981-14.981 14.981-8.256 0-14.969-6.714-14.969-14.981 0-8.256 6.713-14.969 14.969-14.969zm67.241 267.976-64.965-52.827c-4.57-3.7-11.447-.438-11.447 5.449v24.59h-32.344c26.568-31.937 39.968-72.451 37.627-114.377h42.372c3.877 0 7.009-3.132 7.009-7.009v-48.359c0-17.552-9.993-32.805-24.59-40.387 5.012-5.218 8.108-12.298 8.108-20.087 0-15.992-13.019-28.999-29.011-28.999-15.991 0-28.999 13.007-28.999 28.999 0 7.789 3.091 14.869 8.102 20.075-4.834 2.518-9.201 5.886-12.889 9.993-15.791-22.392-37.19-40.895-62.726-53.288l6.329-19.827c1.843-5.748-4.099-11.026-9.592-8.504l-21.712 9.916v-13.498c0-17.558-9.999-32.805-24.596-40.393 5.011-5.212 8.108-12.298 8.108-20.075 0-15.986-13.019-28.987-29.011-28.987-15.986 0-28.999 13.001-28.999 28.987 0 7.777 3.091 14.863 8.102 20.075-14.597 7.588-24.596 22.835-24.596 40.393v21.423c-36.924 10.265-68.683 33.083-90.336 63.571-3.652-4.007-7.954-7.304-12.706-9.769 5.023-5.212 8.108-12.292 8.108-20.093 0-15.992-13.007-28.999-28.999-28.999s-28.999 13.007-28.999 28.999c0 7.789 3.091 14.869 8.102 20.087-14.597 7.582-24.596 22.835-24.596 40.387v48.359c0 3.877 3.138 7.009 7.009 7.009h41.977c-2.346 41.934 11.045 82.431 37.627 114.377h-62.092c-3.871 0-7.015 3.144-7.015 7.015v42.426c0 3.871 3.144 7.015 7.015 7.015h102.912v24.59c0 5.898 6.875 9.156 11.447 5.443l36.936-30.033h196.918v24.59c0 5.898 6.874 9.156 11.447 5.443l64.965-52.815c3.439-2.805 3.454-8.069 0-10.885z" fill="#1e2f3f"/></g></svg>